# xmcd CD database file
#
# Track frame offsets:
#	150
#	11987
#	25701
#	36299
#	53556
#	77998
#	89277
#	105485
#	118453
#	132285
#	146511
#
# Disc length: 2119 seconds
#
# Revision: 0
# Processed by: cddbd v1.5.2PL0 Copyright (c) Steve Scherf et al.
# Submitted via: CDex 1.51
#
DISCID=9108450b
DTITLE=Fayssoux - Early
DYEAR=2008
DGENRE=Country
TTITLE0=The Blackest Crow
TTITLE1=Early
TTITLE2=Save It! Save It!
TTITLE3=I Know It's Over
TTITLE4=California Earthquake
TTITLE5=Amen Children
TTITLE6=Bugler
TTITLE7=Walking Home in the Rain
TTITLE8=I Know How It Feels to Love
TTITLE9=Miss the Mississippi and You
TTITLE10=Weepin' Mary
EXTD=YEAR: 2008
EXTT0=
EXTT1=
EXTT2=
EXTT3=
EXTT4=
EXTT5=
EXTT6=
EXTT7=
EXTT8=
EXTT9=
EXTT10=
PLAYORDER=
